
<svg version="1.0" xmlns="http://www.w3.org/2000/svg"
 width="400.000000pt" height="400.000000pt" viewBox="0 0 400.000000 400.000000"
 preserveAspectRatio="xMidYMid meet">

<g transform="translate(0.000000,400.000000) scale(0.100000,-0.100000)"
fill="#000000" stroke="none">
<path d="M0 2000 l0 -2000 2000 0 2000 0 0 2000 0 2000 -2000 0 -2000 0 0
-2000z m2670 566 c25 -14 56 -30 69 -36 13 -6 37 -20 52 -31 l29 -20 0 -256
c0 -236 -1 -255 -17 -249 -19 8 -365 206 -575 330 -91 53 -136 86 -133 94 3 8
-4 16 -16 19 -20 5 -20 6 3 17 13 7 25 9 28 6 3 -3 32 -19 65 -34 63 -31 189
-99 417 -227 75 -42 139 -74 142 -71 3 3 6 81 6 173 l0 167 -155 88 c-85 48
-152 91 -149 96 3 4 0 8 -7 8 -7 0 -10 3 -6 6 3 3 15 3 28 -1 17 -6 19 -9 8
-16 -11 -7 -11 -9 3 -9 9 0 20 5 23 10 3 6 1 10 -5 10 -6 0 -8 4 -5 10 4 6 -1
7 -12 3 -10 -3 -15 -3 -11 2 4 4 3 14 -3 21 -10 12 114 -50 221 -110z m-185
-793 c160 -94 307 -181 328 -193 21 -13 35 -26 30 -30 -19 -18 -829 -513 -838
-513 -9 0 -144 77 -633 363 l-214 125 6 107 c7 124 15 170 27 162 5 -3 9 1 9
8 0 9 3 9 10 -2 9 -13 10 -13 11 0 3 30 17 -97 18 -165 1 -69 11 -95 37 -95 8
0 13 30 16 91 3 75 8 94 23 105 11 8 24 13 30 11 6 -2 11 -54 13 -130 l3 -125
286 -164 c157 -90 290 -164 294 -166 5 -2 9 86 9 195 l-1 198 -284 170 c-157
93 -285 175 -285 183 0 9 6 12 16 8 8 -3 13 -2 10 3 -8 13 24 23 38 12 6 -5
47 -28 91 -52 44 -23 143 -79 220 -124 77 -45 170 -99 208 -120 l67 -39 0
-128 c0 -83 4 -128 11 -128 11 0 489 302 489 310 0 3 -120 77 -267 165 -478
287 -534 321 -535 332 0 4 -4 7 -10 5 -5 -1 -6 2 -3 8 4 6 14 9 22 6 22 -9 36
3 22 20 -12 15 271 -146 726 -413z m-755 413 c0 -2 -7 -7 -16 -10 -8 -3 -12
-2 -9 4 6 10 25 14 25 6z m-345 -254 c-3 -3 -11 0 -18 7 -9 10 -8 11 6 5 10
-3 15 -9 12 -12z"/>
<path d="M2091 2426 c2 -2 15 -9 29 -15 24 -11 24 -11 6 3 -16 13 -49 24 -35
12z"/>
<path d="M2125 2380 c3 -5 8 -10 11 -10 2 0 4 5 4 10 0 6 -5 10 -11 10 -5 0
-7 -4 -4 -10z"/>
<path d="M2320 1416 l-285 -184 -3 -42 c-3 -34 0 -41 11 -37 22 8 620 377 635
392 11 10 8 16 -21 34 -19 11 -38 21 -43 21 -5 0 -137 -83 -294 -184z"/>
</g>
</svg>
